<svg width="128" height="128" viewBox="0 0 300 215" fill="none" xmlns="http://www.w3.org/2000/svg">
<path d="M47.1514 5.18451C48.9083 1.98696 52.2671 0 55.9156 0H283.095C290.7 0 295.521 8.15105 291.86 14.8155L252.849 85.8155C251.092 89.013 247.733 91 244.084 91H16.9046C9.30041 91 4.4786 82.8489 8.14038 76.1845L47.1514 5.18451Z" fill="black"/>
<path d="M47.1514 129.185C48.9083 125.987 52.2671 124 55.9156 124H283.095C290.7 124 295.521 132.151 291.86 138.815L252.849 209.815C251.092 213.013 247.733 215 244.084 215H16.9046C9.30041 215 4.4786 206.849 8.14038 200.185L47.1514 129.185Z" fill="black"/>
<ellipse cx="88.5" cy="45" rx="28.5" ry="12" fill="white"/>
<ellipse cx="165.5" cy="69" rx="28.5" ry="12" fill="white"/>
<ellipse cx="214.5" cy="169" rx="28.5" ry="12" fill="white"/>
<ellipse cx="76.5" cy="188" rx="28.5" ry="12" fill="white"/>
<ellipse cx="230.5" cy="33" rx="28.5" ry="12" fill="white"/>
<ellipse cx="145.5" cy="148" rx="28.5" ry="12" fill="white"/>
</svg>
